<?xml version="1.0" encoding="utf-8" ?><svg xmlns="http://www.w3.org/2000/svg" xmlns:xlink="http://www.w3.org/1999/xlink" width="219" height="354" viewBox="0 0 219 354"><path fill="#DBDBDB" d="M108.517 18.5607C127.285 16.5022 136.165 44.4974 113.237 52.4358C113.373 53.9184 113.253 55.4795 113.248 56.9719L113.24 65.9915C113.236 72.9 113.51 79.9202 113.237 86.8172C118.856 82.7727 128.743 75.9154 134.752 72.7037C132.077 67.7044 133.349 60.7086 136.481 56.2768C144.915 44.3425 165.686 48.2947 168.026 63.3864C170.55 79.6664 152.376 88.8955 138.817 78.7972C131.407 83.948 119.692 90.3355 113.237 95.9955L113.237 123.985L138.734 123.975C143.418 123.972 151.022 122.385 153.941 126.086C154.327 128.1 154.052 129.329 152.604 130.892C149.993 131.959 144.023 131.468 141.014 131.428L141.022 167.941C141.017 181.922 138.922 181.669 145.995 193.233L201.256 283.263C203.147 286.375 205.256 289.491 206.758 292.811C213.937 308.676 203.972 328.848 187.03 332.642C182.653 333.623 177.959 333.385 173.499 333.387L109.716 333.379L46.5344 333.396C41.6213 333.402 36.5227 333.653 31.7089 332.52C16.598 328.966 7.00622 313.311 10.3199 298.185C11.6609 292.063 15.7081 286.648 18.9379 281.392L72.8297 193.764C80.4571 181.453 78.003 180.709 78.0035 165.579L77.9969 131.428C75.1486 131.623 68.3593 131.735 65.8062 130.892C64.8374 129.852 64.4093 128.972 64.0063 127.611C64.5375 126.055 65.1939 125.111 66.3816 123.985C70.2141 123.694 75.1098 123.979 79.0717 123.98L105.774 123.985L105.774 112.021C99.9997 106.631 86.1274 98.9369 79.0175 93.8862C65.7825 105.396 42.8895 88.9416 53.339 71.8994C65.0205 52.8479 94.7687 70.889 83.7639 88.1465C91.3299 92.6538 98.3205 98.1116 105.774 102.794C105.586 100.712 105.747 98.52 105.757 96.4252L105.775 84.7004C105.777 73.965 105.508 63.1619 105.774 52.4358C85.4429 45.6043 88.1503 20.9403 108.517 18.5607ZM113.237 171.482C111.536 172.821 110.636 173.065 108.517 173.088C103.956 170.7 105.768 164.973 105.768 159.993C105.769 150.484 106.002 140.93 105.774 131.428C99.9453 131.556 94.0935 131.419 88.2613 131.428C87.4991 131.431 86.7336 131.448 85.9719 131.428L85.9755 163.723C85.9775 182.299 88.3498 183.534 78.0256 199.927L25.8737 284.661C19.0767 295.72 11.5378 307.402 23.6595 319.279C31.6709 327.13 42.2593 325.998 52.5333 325.997L172.417 325.991C181.068 326.001 188.544 325.889 195.057 319.382C200.809 313.634 203.207 303.571 199.703 296.011C197.896 292.112 195.318 288.393 193.055 284.737L146.39 208.63C132.768 186.285 133.12 192.084 133.118 165.832C133.118 154.37 133.283 142.887 133.126 131.428L113.237 131.428L113.231 159.991C113.232 163.316 113.674 168.419 113.237 171.482ZM148.104 57.0494C143.052 58.512 140.125 63.7739 141.545 68.8374C142.966 73.9009 148.203 76.8721 153.278 75.4938C158.413 74.0991 161.427 68.7862 159.99 63.6627C158.553 58.5393 153.215 55.5694 148.104 57.0494ZM67.3561 71.1228C62.0918 71.639 58.228 76.3026 58.6997 81.5711C59.1714 86.8396 63.8021 90.7428 69.0743 90.3157C74.41 89.8835 78.3704 85.1847 77.8931 79.8528C77.4158 74.5209 72.6837 70.6003 67.3561 71.1228ZM107.879 25.8956C102.591 26.7945 99.0461 31.8252 99.9776 37.107C100.909 42.3887 105.961 45.903 111.237 44.939C116.467 43.9834 119.945 38.9842 119.021 33.7483C118.098 28.5124 113.12 25.0044 107.879 25.8956Z"/><path fill="#FFA52C" d="M69.4089 228.3C72.4056 228.401 75.4388 228.306 78.4383 228.306L149.774 228.3C153.067 232.79 155.812 237.842 158.7 242.605L187.472 289.467C190.14 293.908 194.028 298.473 194.077 303.898C194.135 310.338 188.897 316.798 182.692 318.392C178.578 319.449 172.982 318.961 168.644 318.96L149.774 318.952L54.4712 318.956C44.2697 318.963 26.631 320.333 25.1051 306.052C24.2398 297.955 29.4953 292.519 33.5758 285.947L60.9412 241.685C63.5344 237.421 66.3246 232.134 69.4089 228.3ZM110.737 259.725C116.481 259.106 120.617 253.919 119.942 248.181C119.267 242.443 114.041 238.358 108.31 239.088C102.656 239.809 98.6386 244.949 99.3043 250.609C99.97 256.269 105.071 260.336 110.737 259.725ZM90.8866 288.313C96.3828 287.395 100.119 282.228 99.267 276.721C98.4154 271.214 93.2932 267.416 87.7765 268.202C84.1483 268.718 81.0781 271.145 79.7387 274.557C78.3992 277.968 78.9973 281.836 81.3046 284.683C83.6119 287.53 87.2719 288.917 90.8866 288.313ZM130.952 296.856C136.563 296.363 140.704 291.404 140.19 285.796C139.677 280.187 134.704 276.063 129.097 276.597C123.518 277.127 119.42 282.07 119.931 287.651C120.442 293.232 125.37 297.348 130.952 296.856Z"/></svg>