<svg width="219" height="354" viewBox="0 0 219 354" fill="none" xmlns="http://www.w3.org/2000/svg">
<path d="M108.743 13.1143C118.715 12.0208 126.033 18.9318 127.824 27.082C128.722 31.1685 128.247 35.6026 126.017 39.5439C123.874 43.3312 120.148 46.5958 114.615 48.668C114.669 49.9883 114.587 51.3645 114.583 52.5225L114.575 61.5391C114.572 67.723 114.792 74.1046 114.634 80.377C120.105 76.4837 128.242 70.9041 133.774 67.8281C131.464 62.5123 132.888 55.6488 135.999 51.2471C140.489 44.8942 148.227 42.8167 155.08 44.2656C161.946 45.7174 168.103 50.7484 169.349 58.7803C170.679 67.3625 166.536 74.1487 160.249 77.418C154.152 80.5884 146.092 80.4313 139.139 75.5664C135.498 78.0554 130.933 80.8181 126.538 83.5977C122.038 86.4437 117.711 89.3134 114.572 92.001V118.531L139.068 118.522L139.949 118.505C140.862 118.473 141.869 118.401 142.946 118.332C144.364 118.241 145.884 118.155 147.357 118.188C150.228 118.254 153.295 118.775 155.061 121.014L155.212 121.205L155.258 121.445C155.465 122.526 155.517 123.505 155.261 124.463C155.003 125.427 154.464 126.266 153.673 127.119L153.521 127.281L153.317 127.365C151.806 127.983 149.47 128.116 147.296 128.122C145.587 128.126 143.74 128.045 142.349 128.001L142.356 163.488L142.351 164.768C142.323 167.658 142.212 169.901 142.137 171.753C142.05 173.882 142.013 175.45 142.183 176.927C142.515 179.822 143.653 182.488 147.182 188.257L202.443 278.287L202.445 278.291C204.301 281.345 206.469 284.553 208.004 287.946C215.441 304.383 205.15 325.231 187.583 329.165C184.196 329.924 180.62 329.976 177.195 329.955L173.834 329.935L110.051 329.926L46.8691 329.942L46.8701 329.943C42.0318 329.949 36.7737 330.208 31.8145 329.041C16.1588 325.359 6.25034 309.165 9.67773 293.519C10.379 290.317 11.7804 287.332 13.3867 284.516C14.9755 281.73 16.845 278.981 18.4209 276.416V276.415L72.3125 188.787L72.3145 188.784C76.1026 182.67 77.2981 179.566 77.6162 176.183C77.7786 174.455 77.7147 172.627 77.6035 170.229C77.4929 167.843 77.3378 164.936 77.3379 161.126L77.332 128.032C75.8953 128.099 73.9881 128.138 72.1035 128.096C69.7484 128.043 67.2663 127.864 65.8271 127.389L65.584 127.309L65.4092 127.121C64.3109 125.942 63.8175 124.914 63.3818 123.442L63.292 123.137L63.3945 122.835C63.9845 121.107 64.7389 120.029 66.0283 118.807L66.2861 118.562L66.6406 118.535C70.5194 118.241 75.5421 118.526 79.4072 118.527H79.4062L105.108 118.531V108.01C102.263 105.443 97.6022 102.337 92.6953 99.2178C87.9359 96.1921 82.9587 93.1595 79.4023 90.6895C72.3975 96.2548 63.1774 94.8112 57.0107 89.9307C53.8239 87.4084 51.3855 83.9276 50.4434 79.9189C49.4969 75.8919 50.0772 71.3992 52.8213 66.9238C55.8909 61.9176 60.1892 59.3019 64.7373 58.5352C69.2575 57.7731 73.9591 58.8458 77.8887 61.085C81.8159 63.3228 85.0478 66.7688 86.5674 70.8457C88.0016 74.6941 87.8864 79.0527 85.4678 83.3535C88.976 85.4873 92.3635 87.8058 95.7158 90.1299C98.8173 92.28 101.887 94.4295 105.022 96.46C105.005 94.9186 105.085 93.3636 105.092 91.9678L105.109 80.2471C105.111 69.7891 104.856 59.188 105.093 48.6855C95.0222 45.0129 90.5103 36.9341 91.2227 29.2832C91.9509 21.4617 98.1179 14.3549 108.735 13.1143H108.743ZM114.565 155.538L114.57 156.174C114.592 157.7 114.682 159.503 114.732 161.354C114.788 163.425 114.793 165.545 114.562 167.17L114.505 167.567L114.19 167.814C113.3 168.516 112.543 168.992 111.682 169.275C110.828 169.556 109.946 169.623 108.862 169.635L108.611 169.638L108.388 169.521C105.66 168.093 104.894 165.634 104.769 163.109C104.706 161.862 104.795 160.545 104.894 159.274C104.994 157.981 105.103 156.737 105.103 155.54C105.104 146.329 105.319 137.15 105.13 127.991C99.6189 128.085 94.0626 127.967 88.5986 127.976C88.183 127.977 87.7475 127.982 87.3066 127.983L87.3105 159.271C87.3111 163.901 87.4586 167.429 87.5205 170.438C87.582 173.43 87.558 175.91 87.1963 178.338C86.4669 183.234 84.3828 187.789 79.207 196.007L79.2061 196.006L27.0605 280.732L27.0596 280.731C23.6303 286.311 20.161 291.836 18.9854 297.417C18.4039 300.177 18.3935 302.922 19.2275 305.671C20.0621 308.421 21.7615 311.239 24.6943 314.112C28.5052 317.847 32.9339 319.462 37.7227 320.14C42.5628 320.825 47.6541 320.544 52.8682 320.544L172.752 320.538H172.753C181.437 320.548 188.498 320.402 194.685 314.222C200.177 308.733 202.437 299.112 199.131 291.979C197.358 288.152 194.841 284.529 192.539 280.811L192.537 280.807L145.872 204.7L145.871 204.697C142.466 199.111 139.959 195.325 138.057 192.285C136.169 189.269 134.884 186.998 134.037 184.573C132.351 179.745 132.454 174.406 132.453 161.379C132.453 150.226 132.606 139.098 132.472 127.976H114.572L114.565 155.538ZM77.2314 75.4893C76.8037 70.7107 72.5627 67.1968 67.7881 67.665C63.0703 68.1278 59.6075 72.3077 60.0303 77.0293C60.4531 81.7509 64.6033 85.2488 69.3281 84.8662C74.11 84.4789 77.6591 80.2678 77.2314 75.4893ZM159.362 59.4795C158.075 54.8912 153.294 52.2312 148.717 53.5566C144.192 54.8665 141.571 59.5793 142.843 64.1143C144.115 68.6492 148.806 71.3104 153.351 70.0762C157.949 68.8271 160.649 64.0682 159.362 59.4795ZM118.371 29.4688C117.543 24.7747 113.081 21.6299 108.382 22.4287C103.641 23.2346 100.462 27.7449 101.297 32.4805C102.132 37.2158 106.661 40.366 111.392 39.502C116.081 38.6452 119.199 34.1629 118.371 29.4688Z" fill="#427AA1" stroke="#427AA1" stroke-width="2"/>
<path d="M69.7435 223.847C72.7402 223.948 75.7734 223.853 78.7729 223.853L150.109 223.847C153.402 228.337 156.147 233.389 159.035 238.152L187.807 285.014C190.475 289.455 194.363 294.02 194.412 299.445C194.47 305.885 189.232 312.345 183.027 313.939C178.913 314.996 173.317 314.508 168.979 314.507L150.109 314.499L54.8058 314.503C44.6043 314.51 26.9656 315.88 25.4397 301.599C24.5744 293.502 29.8299 288.066 33.9104 281.494L61.2758 237.232C63.869 232.968 66.6592 227.681 69.7435 223.847ZM111.072 255.272C116.816 254.653 120.952 249.466 120.277 243.728C119.602 237.99 114.376 233.905 108.645 234.635C102.991 235.356 98.9732 240.496 99.6389 246.156C100.305 251.816 105.406 255.883 111.072 255.272ZM91.2212 283.86C96.7174 282.942 100.454 277.775 99.6016 272.268C98.75 266.761 93.6278 262.963 88.1111 263.749C84.4829 264.265 81.4127 266.692 80.0733 270.104C78.7338 273.515 79.3319 277.383 81.6392 280.23C83.9465 283.077 87.6065 284.464 91.2212 283.86ZM131.287 292.403C136.898 291.91 141.039 286.951 140.525 281.343C140.012 275.734 135.039 271.61 129.432 272.144C123.853 272.674 119.755 277.617 120.266 283.198C120.777 288.779 125.705 292.895 131.287 292.403Z" fill="#FFA52C"/>
</svg>
